<?xml version="1.0" encoding="UTF-8" standalone="no"?>
<!DOCTYPE svg PUBLIC "-//W3C//DTD SVG 1.1//EN" "http://www.w3.org/Graphics/SVG/1.1/DTD/svg11.dtd">
<svg width="100%" height="100%" viewBox="0 0 918 389" version="1.1" xmlns="http://www.w3.org/2000/svg" xmlns:xlink="http://www.w3.org/1999/xlink" xml:space="preserve" xmlns:serif="http://www.serif.com/" style="fill-rule:evenodd;clip-rule:evenodd;stroke-linecap:round;stroke-linejoin:round;stroke-miterlimit:1.5;">
    <g transform="matrix(1,0,0,1,-503,-384)">
        <g transform="matrix(3.53519,0,0,3.53519,-2179.39,-1870.6)">
            <g transform="matrix(9.91038,0,0,9.91038,766.57,739.969)">
                <path d="M0.619,0L0.655,0L0.35,-0.7L0.322,-0.7L0.025,0L0.06,0L0.146,-0.203L0.532,-0.203L0.619,0ZM0.337,-0.652L0.519,-0.234L0.159,-0.234L0.337,-0.652Z" style="fill-rule:nonzero;"/>
            </g>
            <g transform="matrix(9.91038,0,0,9.91038,775.767,739.969)">
                <path d="M0.89,0L0.767,-0.7L0.738,-0.7L0.47,-0.092L0.204,-0.7L0.175,-0.7L0.051,0L0.084,0L0.197,-0.636L0.464,-0.032L0.477,-0.032L0.745,-0.637L0.857,0L0.89,0Z" style="fill-rule:nonzero;"/>
            </g>
            <g transform="matrix(9.91038,0,0,9.91038,785.103,739.969)">
                <path d="M0.331,0.011C0.493,0.011 0.613,-0.109 0.613,-0.27C0.613,-0.431 0.493,-0.551 0.331,-0.551C0.171,-0.551 0.05,-0.432 0.05,-0.27C0.05,-0.109 0.171,0.011 0.331,0.011ZM0.331,-0.02C0.189,-0.02 0.083,-0.127 0.083,-0.27C0.083,-0.414 0.189,-0.52 0.331,-0.52C0.474,-0.52 0.58,-0.413 0.58,-0.27C0.58,-0.127 0.474,-0.02 0.331,-0.02Z" style="fill-rule:nonzero;"/>
            </g>
            <g transform="matrix(9.91038,0,0,9.91038,791.673,739.969)">
                <path d="M0.341,-0.551C0.248,-0.551 0.166,-0.496 0.129,-0.416L0.123,-0.54L0.098,-0.54L0.098,0L0.13,0L0.13,-0.314C0.13,-0.426 0.224,-0.521 0.335,-0.521C0.451,-0.521 0.521,-0.443 0.521,-0.314L0.521,0L0.553,0L0.553,-0.32C0.553,-0.459 0.471,-0.551 0.341,-0.551Z" style="fill-rule:nonzero;"/>
            </g>
            <g transform="matrix(9.91038,0,0,9.91038,797.956,739.969)">
                <path d="M0.3,-0.031C0.216,-0.031 0.168,-0.081 0.168,-0.166L0.168,-0.511L0.364,-0.511L0.364,-0.539L0.168,-0.539L0.168,-0.699L0.136,-0.699L0.136,-0.539L0.012,-0.539L0.012,-0.511L0.136,-0.511L0.136,-0.165C0.136,-0.062 0.197,0 0.298,0L0.368,0L0.368,-0.031L0.3,-0.031Z" style="fill-rule:nonzero;"/>
            </g>
            <g transform="matrix(9.91038,0,0,9.91038,801.752,739.969)">
                <path d="M0.32,-0.542C0.229,-0.542 0.162,-0.494 0.128,-0.418L0.123,-0.54L0.098,-0.54L0.098,0L0.13,0L0.13,-0.304C0.13,-0.424 0.205,-0.511 0.318,-0.511L0.367,-0.511L0.367,-0.542L0.32,-0.542Z" style="fill-rule:nonzero;"/>
            </g>
            <g transform="matrix(9.91038,0,0,9.91038,805.27,739.969)">
                <path d="M0.587,-0.274C0.587,-0.43 0.477,-0.55 0.322,-0.55C0.168,-0.55 0.051,-0.43 0.051,-0.271C0.051,-0.11 0.168,0.01 0.322,0.01C0.432,0.01 0.519,-0.047 0.57,-0.154L0.536,-0.154C0.493,-0.07 0.417,-0.021 0.322,-0.021C0.188,-0.021 0.088,-0.122 0.083,-0.26L0.587,-0.26C0.587,-0.264 0.587,-0.269 0.587,-0.274ZM0.322,-0.52C0.449,-0.52 0.547,-0.427 0.556,-0.291L0.083,-0.291C0.092,-0.423 0.191,-0.52 0.322,-0.52L0.322,-0.52Z" style="fill-rule:nonzero;"/>
            </g>
            <g transform="matrix(9.91038,0,0,9.91038,811.554,739.969)">
                <path d="M0.577,-0.54L0.572,-0.399C0.529,-0.49 0.439,-0.55 0.326,-0.55C0.169,-0.55 0.05,-0.43 0.05,-0.27C0.05,-0.11 0.169,0.01 0.326,0.01C0.439,0.01 0.529,-0.05 0.572,-0.141L0.576,0L0.604,0L0.604,-0.54L0.577,-0.54ZM0.327,-0.021C0.188,-0.021 0.083,-0.128 0.083,-0.27C0.083,-0.412 0.188,-0.519 0.327,-0.519C0.469,-0.519 0.571,-0.414 0.571,-0.27C0.571,-0.126 0.469,-0.021 0.327,-0.021Z" style="fill-rule:nonzero;"/>
            </g>
            <g transform="matrix(9.91038,0,0,9.91038,818.511,739.969)">
                <rect x="0.098" y="-0.731" width="0.032" height="0.731" style="fill-rule:nonzero;"/>
            </g>
            <g transform="matrix(9.91038,0,0,9.91038,823.565,739.969)">
                <path d="M0.375,-0.55C0.266,-0.55 0.175,-0.492 0.13,-0.403L0.13,-0.731L0.098,-0.731L0.098,0L0.125,0L0.13,-0.139C0.174,-0.049 0.265,0.01 0.375,0.01C0.536,0.01 0.65,-0.11 0.65,-0.27C0.65,-0.43 0.536,-0.55 0.375,-0.55L0.375,-0.55ZM0.374,-0.021C0.234,-0.021 0.129,-0.129 0.129,-0.27C0.129,-0.412 0.234,-0.519 0.374,-0.519C0.515,-0.519 0.617,-0.414 0.617,-0.27C0.617,-0.126 0.515,-0.021 0.374,-0.021Z" style="fill-rule:nonzero;"/>
            </g>
            <g transform="matrix(9.91038,0,0,9.91038,830.512,739.969)">
                <path d="M0.577,-0.54L0.572,-0.399C0.529,-0.49 0.439,-0.55 0.326,-0.55C0.169,-0.55 0.05,-0.43 0.05,-0.27C0.05,-0.11 0.169,0.01 0.326,0.01C0.439,0.01 0.529,-0.05 0.572,-0.141L0.576,0L0.604,0L0.604,-0.54L0.577,-0.54ZM0.327,-0.021C0.188,-0.021 0.083,-0.128 0.083,-0.27C0.083,-0.412 0.188,-0.519 0.327,-0.519C0.469,-0.519 0.571,-0.414 0.571,-0.27C0.571,-0.126 0.469,-0.021 0.327,-0.021Z" style="fill-rule:nonzero;"/>
            </g>
            <g transform="matrix(9.91038,0,0,9.91038,837.469,739.969)">
                <path d="M0.253,0.01C0.376,0.01 0.457,-0.051 0.457,-0.144C0.457,-0.264 0.35,-0.283 0.256,-0.299C0.168,-0.314 0.09,-0.327 0.09,-0.408C0.09,-0.476 0.153,-0.521 0.249,-0.521C0.347,-0.521 0.407,-0.476 0.412,-0.4L0.443,-0.4C0.438,-0.493 0.365,-0.55 0.25,-0.55C0.136,-0.55 0.058,-0.493 0.058,-0.407C0.058,-0.301 0.155,-0.284 0.248,-0.268C0.337,-0.253 0.425,-0.236 0.425,-0.143C0.425,-0.068 0.357,-0.02 0.254,-0.02C0.152,-0.02 0.087,-0.066 0.079,-0.147L0.048,-0.147C0.056,-0.049 0.132,0.01 0.253,0.01Z" style="fill-rule:nonzero;"/>
            </g>
            <g transform="matrix(9.91038,0,0,9.91038,842.484,739.969)">
                <path d="M0.587,-0.274C0.587,-0.43 0.477,-0.55 0.322,-0.55C0.168,-0.55 0.051,-0.43 0.051,-0.271C0.051,-0.11 0.168,0.01 0.322,0.01C0.432,0.01 0.519,-0.047 0.57,-0.154L0.536,-0.154C0.493,-0.07 0.417,-0.021 0.322,-0.021C0.188,-0.021 0.088,-0.122 0.083,-0.26L0.587,-0.26C0.587,-0.264 0.587,-0.269 0.587,-0.274ZM0.322,-0.52C0.449,-0.52 0.547,-0.427 0.556,-0.291L0.083,-0.291C0.092,-0.423 0.191,-0.52 0.322,-0.52L0.322,-0.52Z" style="fill-rule:nonzero;"/>
            </g>
            <g transform="matrix(9.91038,0,0,9.91038,848.767,739.969)">
                <path d="M0.57,-0.731L0.57,-0.404C0.526,-0.493 0.436,-0.55 0.326,-0.55C0.168,-0.55 0.05,-0.43 0.05,-0.27C0.05,-0.11 0.168,0.01 0.326,0.01C0.437,0.01 0.527,-0.048 0.571,-0.138L0.575,0L0.602,0L0.602,-0.731L0.57,-0.731ZM0.327,-0.021C0.188,-0.021 0.083,-0.128 0.083,-0.27C0.083,-0.413 0.188,-0.519 0.327,-0.519C0.468,-0.519 0.571,-0.414 0.571,-0.27C0.571,-0.126 0.468,-0.021 0.327,-0.021Z" style="fill-rule:nonzero;"/>
            </g>
            <g transform="matrix(9.91038,0,0,9.91038,858.489,739.969)">
                <path d="M0.554,-0.54L0.549,-0.404C0.508,-0.492 0.42,-0.55 0.314,-0.55C0.165,-0.55 0.051,-0.435 0.051,-0.285C0.051,-0.134 0.165,-0.019 0.314,-0.019C0.418,-0.019 0.504,-0.074 0.547,-0.159L0.547,-0.076C0.547,0.079 0.461,0.171 0.322,0.171C0.223,0.171 0.147,0.123 0.115,0.036L0.083,0.036C0.117,0.14 0.202,0.201 0.322,0.201C0.482,0.201 0.578,0.095 0.578,-0.079L0.578,-0.54L0.554,-0.54ZM0.316,-0.05C0.184,-0.05 0.083,-0.151 0.083,-0.285C0.083,-0.418 0.184,-0.52 0.316,-0.52C0.449,-0.52 0.546,-0.42 0.546,-0.285C0.546,-0.149 0.449,-0.05 0.316,-0.05Z" style="fill-rule:nonzero;"/>
            </g>
            <g transform="matrix(9.91038,0,0,9.91038,865.189,739.969)">
                <path d="M0.577,-0.54L0.572,-0.399C0.529,-0.49 0.439,-0.55 0.326,-0.55C0.169,-0.55 0.05,-0.43 0.05,-0.27C0.05,-0.11 0.169,0.01 0.326,0.01C0.439,0.01 0.529,-0.05 0.572,-0.141L0.576,0L0.604,0L0.604,-0.54L0.577,-0.54ZM0.327,-0.021C0.188,-0.021 0.083,-0.128 0.083,-0.27C0.083,-0.412 0.188,-0.519 0.327,-0.519C0.469,-0.519 0.571,-0.414 0.571,-0.27C0.571,-0.126 0.469,-0.021 0.327,-0.021Z" style="fill-rule:nonzero;"/>
            </g>
            <g transform="matrix(9.91038,0,0,9.91038,872.146,739.969)">
                <path d="M0.686,-0.551C0.593,-0.551 0.521,-0.498 0.49,-0.413C0.468,-0.498 0.404,-0.551 0.318,-0.551C0.232,-0.551 0.162,-0.505 0.128,-0.43L0.123,-0.54L0.098,-0.54L0.098,0L0.13,0L0.13,-0.316C0.131,-0.438 0.205,-0.521 0.313,-0.521C0.407,-0.521 0.467,-0.448 0.467,-0.334L0.467,0L0.499,0L0.499,-0.316C0.5,-0.438 0.574,-0.521 0.681,-0.521C0.774,-0.521 0.835,-0.447 0.835,-0.334L0.836,0L0.867,0L0.867,-0.341C0.867,-0.467 0.795,-0.551 0.686,-0.551Z" style="fill-rule:nonzero;"/>
            </g>
            <g transform="matrix(9.91038,0,0,9.91038,881.62,739.969)">
                <path d="M0.587,-0.274C0.587,-0.43 0.477,-0.55 0.322,-0.55C0.168,-0.55 0.051,-0.43 0.051,-0.271C0.051,-0.11 0.168,0.01 0.322,0.01C0.432,0.01 0.519,-0.047 0.57,-0.154L0.536,-0.154C0.493,-0.07 0.417,-0.021 0.322,-0.021C0.188,-0.021 0.088,-0.122 0.083,-0.26L0.587,-0.26C0.587,-0.264 0.587,-0.269 0.587,-0.274ZM0.322,-0.52C0.449,-0.52 0.547,-0.427 0.556,-0.291L0.083,-0.291C0.092,-0.423 0.191,-0.52 0.322,-0.52L0.322,-0.52Z" style="fill-rule:nonzero;"/>
            </g>
            <g transform="matrix(9.91038,0,0,9.91038,890.688,739.969)">
                <path d="M0.57,-0.731L0.57,-0.404C0.526,-0.493 0.436,-0.55 0.326,-0.55C0.168,-0.55 0.05,-0.43 0.05,-0.27C0.05,-0.11 0.168,0.01 0.326,0.01C0.437,0.01 0.527,-0.048 0.571,-0.138L0.575,0L0.602,0L0.602,-0.731L0.57,-0.731ZM0.327,-0.021C0.188,-0.021 0.083,-0.128 0.083,-0.27C0.083,-0.413 0.188,-0.519 0.327,-0.519C0.468,-0.519 0.571,-0.414 0.571,-0.27C0.571,-0.126 0.468,-0.021 0.327,-0.021Z" style="fill-rule:nonzero;"/>
            </g>
            <g transform="matrix(9.91038,0,0,9.91038,897.625,739.969)">
                <path d="M0.587,-0.274C0.587,-0.43 0.477,-0.55 0.322,-0.55C0.168,-0.55 0.051,-0.43 0.051,-0.271C0.051,-0.11 0.168,0.01 0.322,0.01C0.432,0.01 0.519,-0.047 0.57,-0.154L0.536,-0.154C0.493,-0.07 0.417,-0.021 0.322,-0.021C0.188,-0.021 0.088,-0.122 0.083,-0.26L0.587,-0.26C0.587,-0.264 0.587,-0.269 0.587,-0.274ZM0.322,-0.52C0.449,-0.52 0.547,-0.427 0.556,-0.291L0.083,-0.291C0.092,-0.423 0.191,-0.52 0.322,-0.52L0.322,-0.52Z" style="fill-rule:nonzero;"/>
            </g>
            <g transform="matrix(9.91038,0,0,9.91038,903.809,739.969)">
                <path d="M0.504,-0.54L0.283,-0.046L0.058,-0.54L0.024,-0.54L0.27,0L0.297,0L0.537,-0.54L0.504,-0.54Z" style="fill-rule:nonzero;"/>
            </g>
            <g transform="matrix(9.91038,0,0,9.91038,909.27,739.969)">
                <path d="M0.587,-0.274C0.587,-0.43 0.477,-0.55 0.322,-0.55C0.168,-0.55 0.051,-0.43 0.051,-0.271C0.051,-0.11 0.168,0.01 0.322,0.01C0.432,0.01 0.519,-0.047 0.57,-0.154L0.536,-0.154C0.493,-0.07 0.417,-0.021 0.322,-0.021C0.188,-0.021 0.088,-0.122 0.083,-0.26L0.587,-0.26C0.587,-0.264 0.587,-0.269 0.587,-0.274ZM0.322,-0.52C0.449,-0.52 0.547,-0.427 0.556,-0.291L0.083,-0.291C0.092,-0.423 0.191,-0.52 0.322,-0.52L0.322,-0.52Z" style="fill-rule:nonzero;"/>
            </g>
            <g transform="matrix(9.91038,0,0,9.91038,915.553,739.969)">
                <rect x="0.098" y="-0.731" width="0.032" height="0.731" style="fill-rule:nonzero;"/>
            </g>
            <g transform="matrix(9.91038,0,0,9.91038,917.823,739.969)">
                <path d="M0.331,0.011C0.493,0.011 0.613,-0.109 0.613,-0.27C0.613,-0.431 0.493,-0.551 0.331,-0.551C0.171,-0.551 0.05,-0.432 0.05,-0.27C0.05,-0.109 0.171,0.011 0.331,0.011ZM0.331,-0.02C0.189,-0.02 0.083,-0.127 0.083,-0.27C0.083,-0.414 0.189,-0.52 0.331,-0.52C0.474,-0.52 0.58,-0.413 0.58,-0.27C0.58,-0.127 0.474,-0.02 0.331,-0.02Z" style="fill-rule:nonzero;"/>
            </g>
            <g transform="matrix(9.91038,0,0,9.91038,924.393,739.969)">
                <path d="M0.376,-0.55C0.265,-0.55 0.174,-0.49 0.129,-0.399L0.123,-0.54L0.098,-0.54L0.098,0.191L0.13,0.191L0.13,-0.14C0.175,-0.049 0.266,0.01 0.376,0.01C0.536,0.01 0.65,-0.11 0.65,-0.27C0.65,-0.43 0.536,-0.55 0.376,-0.55L0.376,-0.55ZM0.374,-0.021C0.234,-0.021 0.129,-0.128 0.129,-0.27C0.129,-0.412 0.234,-0.519 0.374,-0.519C0.515,-0.519 0.618,-0.414 0.618,-0.27C0.618,-0.126 0.515,-0.021 0.374,-0.021Z" style="fill-rule:nonzero;"/>
            </g>
            <g transform="matrix(9.91038,0,0,9.91038,931.34,739.969)">
                <path d="M0.686,-0.551C0.593,-0.551 0.521,-0.498 0.49,-0.413C0.468,-0.498 0.404,-0.551 0.318,-0.551C0.232,-0.551 0.162,-0.505 0.128,-0.43L0.123,-0.54L0.098,-0.54L0.098,0L0.13,0L0.13,-0.316C0.131,-0.438 0.205,-0.521 0.313,-0.521C0.407,-0.521 0.467,-0.448 0.467,-0.334L0.467,0L0.499,0L0.499,-0.316C0.5,-0.438 0.574,-0.521 0.681,-0.521C0.774,-0.521 0.835,-0.447 0.835,-0.334L0.836,0L0.867,0L0.867,-0.341C0.867,-0.467 0.795,-0.551 0.686,-0.551Z" style="fill-rule:nonzero;"/>
            </g>
            <g transform="matrix(9.91038,0,0,9.91038,940.815,739.969)">
                <path d="M0.587,-0.274C0.587,-0.43 0.477,-0.55 0.322,-0.55C0.168,-0.55 0.051,-0.43 0.051,-0.271C0.051,-0.11 0.168,0.01 0.322,0.01C0.432,0.01 0.519,-0.047 0.57,-0.154L0.536,-0.154C0.493,-0.07 0.417,-0.021 0.322,-0.021C0.188,-0.021 0.088,-0.122 0.083,-0.26L0.587,-0.26C0.587,-0.264 0.587,-0.269 0.587,-0.274ZM0.322,-0.52C0.449,-0.52 0.547,-0.427 0.556,-0.291L0.083,-0.291C0.092,-0.423 0.191,-0.52 0.322,-0.52L0.322,-0.52Z" style="fill-rule:nonzero;"/>
            </g>
            <g transform="matrix(9.91038,0,0,9.91038,947.098,739.969)">
                <path d="M0.341,-0.551C0.248,-0.551 0.166,-0.496 0.129,-0.416L0.123,-0.54L0.098,-0.54L0.098,0L0.13,0L0.13,-0.314C0.13,-0.426 0.224,-0.521 0.335,-0.521C0.451,-0.521 0.521,-0.443 0.521,-0.314L0.521,0L0.553,0L0.553,-0.32C0.553,-0.459 0.471,-0.551 0.341,-0.551Z" style="fill-rule:nonzero;"/>
            </g>
            <g transform="matrix(9.91038,0,0,9.91038,953.381,739.969)">
                <path d="M0.3,-0.031C0.216,-0.031 0.168,-0.081 0.168,-0.166L0.168,-0.511L0.364,-0.511L0.364,-0.539L0.168,-0.539L0.168,-0.699L0.136,-0.699L0.136,-0.539L0.012,-0.539L0.012,-0.511L0.136,-0.511L0.136,-0.165C0.136,-0.062 0.197,0 0.298,0L0.368,0L0.368,-0.031L0.3,-0.031Z" style="fill-rule:nonzero;"/>
            </g>
            <g transform="matrix(9.91038,0,0,9.91038,959.961,739.969)">
                <path d="M0.328,0.01C0.445,0.01 0.54,-0.056 0.581,-0.161L0.548,-0.161C0.507,-0.072 0.426,-0.021 0.328,-0.021C0.189,-0.021 0.083,-0.129 0.083,-0.27C0.083,-0.412 0.188,-0.519 0.328,-0.519C0.426,-0.519 0.508,-0.467 0.546,-0.381L0.579,-0.381C0.541,-0.483 0.447,-0.55 0.328,-0.55C0.17,-0.55 0.05,-0.431 0.05,-0.27C0.05,-0.11 0.171,0.01 0.328,0.01Z" style="fill-rule:nonzero;"/>
            </g>
            <g transform="matrix(9.91038,0,0,9.91038,966.096,739.969)">
                <path d="M0.331,0.011C0.493,0.011 0.613,-0.109 0.613,-0.27C0.613,-0.431 0.493,-0.551 0.331,-0.551C0.171,-0.551 0.05,-0.432 0.05,-0.27C0.05,-0.109 0.171,0.011 0.331,0.011ZM0.331,-0.02C0.189,-0.02 0.083,-0.127 0.083,-0.27C0.083,-0.414 0.189,-0.52 0.331,-0.52C0.474,-0.52 0.58,-0.413 0.58,-0.27C0.58,-0.127 0.474,-0.02 0.331,-0.02Z" style="fill-rule:nonzero;"/>
            </g>
            <g transform="matrix(9.91038,0,0,9.91038,972.667,739.969)">
                <path d="M0.686,-0.551C0.593,-0.551 0.521,-0.498 0.49,-0.413C0.468,-0.498 0.404,-0.551 0.318,-0.551C0.232,-0.551 0.162,-0.505 0.128,-0.43L0.123,-0.54L0.098,-0.54L0.098,0L0.13,0L0.13,-0.316C0.131,-0.438 0.205,-0.521 0.313,-0.521C0.407,-0.521 0.467,-0.448 0.467,-0.334L0.467,0L0.499,0L0.499,-0.316C0.5,-0.438 0.574,-0.521 0.681,-0.521C0.774,-0.521 0.835,-0.447 0.835,-0.334L0.836,0L0.867,0L0.867,-0.341C0.867,-0.467 0.795,-0.551 0.686,-0.551Z" style="fill-rule:nonzero;"/>
            </g>
            <g transform="matrix(9.91038,0,0,9.91038,982.141,739.969)">
                <path d="M0.376,-0.55C0.265,-0.55 0.174,-0.49 0.129,-0.399L0.123,-0.54L0.098,-0.54L0.098,0.191L0.13,0.191L0.13,-0.14C0.175,-0.049 0.266,0.01 0.376,0.01C0.536,0.01 0.65,-0.11 0.65,-0.27C0.65,-0.43 0.536,-0.55 0.376,-0.55L0.376,-0.55ZM0.374,-0.021C0.234,-0.021 0.129,-0.128 0.129,-0.27C0.129,-0.412 0.234,-0.519 0.374,-0.519C0.515,-0.519 0.618,-0.414 0.618,-0.27C0.618,-0.126 0.515,-0.021 0.374,-0.021Z" style="fill-rule:nonzero;"/>
            </g>
            <g transform="matrix(9.91038,0,0,9.91038,989.088,739.969)">
                <path d="M0.577,-0.54L0.572,-0.399C0.529,-0.49 0.439,-0.55 0.326,-0.55C0.169,-0.55 0.05,-0.43 0.05,-0.27C0.05,-0.11 0.169,0.01 0.326,0.01C0.439,0.01 0.529,-0.05 0.572,-0.141L0.576,0L0.604,0L0.604,-0.54L0.577,-0.54ZM0.327,-0.021C0.188,-0.021 0.083,-0.128 0.083,-0.27C0.083,-0.412 0.188,-0.519 0.327,-0.519C0.469,-0.519 0.571,-0.414 0.571,-0.27C0.571,-0.126 0.469,-0.021 0.327,-0.021Z" style="fill-rule:nonzero;"/>
            </g>
            <g transform="matrix(9.91038,0,0,9.91038,996.045,739.969)">
                <path d="M0.341,-0.551C0.248,-0.551 0.166,-0.496 0.129,-0.416L0.123,-0.54L0.098,-0.54L0.098,0L0.13,0L0.13,-0.314C0.13,-0.426 0.224,-0.521 0.335,-0.521C0.451,-0.521 0.521,-0.443 0.521,-0.314L0.521,0L0.553,0L0.553,-0.32C0.553,-0.459 0.471,-0.551 0.341,-0.551Z" style="fill-rule:nonzero;"/>
            </g>
            <g transform="matrix(9.91038,0,0,9.91038,1002.26,739.969)">
                <path d="M0.515,-0.54L0.294,-0.066L0.061,-0.54L0.025,-0.54L0.277,-0.03L0.245,0.039C0.198,0.138 0.161,0.161 0.087,0.161L0.047,0.161L0.047,0.191L0.089,0.191C0.175,0.191 0.222,0.16 0.274,0.048L0.549,-0.54L0.515,-0.54Z" style="fill-rule:nonzero;"/>
            </g>
        </g>
        <g id="Frostvale_Logo" transform="matrix(0.5295,0,0,0.5295,983.5,507.25)">
            <g transform="matrix(1,0,0,1,-1000,-500)">
                <g transform="matrix(1,0,0,1,248.151,21.1702)">
                    <g transform="matrix(121.456,0,0,121.456,876,704)">
                        <path d="M0.389,-0.374L0.389,-0.253L0.563,-0.253C0.541,-0.199 0.478,-0.163 0.404,-0.163C0.298,-0.163 0.229,-0.239 0.229,-0.349C0.229,-0.461 0.3,-0.537 0.404,-0.537C0.476,-0.537 0.539,-0.499 0.564,-0.44L0.766,-0.44C0.736,-0.603 0.586,-0.718 0.403,-0.718C0.187,-0.718 0.032,-0.562 0.032,-0.349C0.032,-0.136 0.19,0.018 0.404,0.018C0.624,0.018 0.773,-0.145 0.773,-0.374L0.389,-0.374Z" style="fill:rgb(0,0,8);fill-rule:nonzero;"/>
                    </g>
                    <g transform="matrix(121.456,0,0,121.456,973.529,704)">
                        <path d="M0.495,-0.541L0.476,-0.499C0.431,-0.536 0.374,-0.557 0.311,-0.557C0.146,-0.557 0.028,-0.438 0.028,-0.271C0.028,-0.103 0.146,0.018 0.311,0.018C0.373,0.018 0.429,-0.003 0.474,-0.039L0.49,-0.001L0.633,-0.001L0.633,-0.541L0.495,-0.541ZM0.336,-0.147C0.266,-0.147 0.215,-0.2 0.215,-0.27C0.215,-0.34 0.265,-0.393 0.336,-0.393C0.405,-0.393 0.456,-0.34 0.456,-0.27C0.456,-0.2 0.405,-0.147 0.336,-0.147Z" style="fill:rgb(0,0,8);fill-rule:nonzero;"/>
                    </g>
                    <g transform="matrix(121.456,0,0,121.456,1057.58,704)">
                        <path d="M0.694,-0.556C0.627,-0.556 0.567,-0.525 0.528,-0.476C0.495,-0.526 0.439,-0.556 0.374,-0.556C0.312,-0.556 0.255,-0.527 0.216,-0.482L0.19,-0.54L0.059,-0.54L0.059,0L0.245,0L0.245,-0.296C0.245,-0.363 0.272,-0.399 0.323,-0.399C0.362,-0.399 0.382,-0.37 0.382,-0.316L0.382,0L0.563,0L0.563,-0.296C0.563,-0.364 0.589,-0.399 0.641,-0.399C0.68,-0.399 0.701,-0.372 0.701,-0.316L0.701,0L0.887,0L0.887,-0.339C0.887,-0.466 0.81,-0.556 0.694,-0.556Z" style="fill:rgb(0,0,8);fill-rule:nonzero;"/>
                    </g>
                    <g transform="matrix(121.456,0,0,121.456,1171.62,704)">
                        <path d="M0.615,-0.275C0.615,-0.434 0.494,-0.558 0.32,-0.558C0.151,-0.558 0.027,-0.436 0.027,-0.27C0.027,-0.105 0.152,0.018 0.32,0.018C0.456,0.018 0.565,-0.059 0.603,-0.182L0.418,-0.182C0.4,-0.151 0.364,-0.132 0.32,-0.132C0.262,-0.132 0.222,-0.164 0.21,-0.226L0.611,-0.226C0.614,-0.243 0.615,-0.259 0.615,-0.275ZM0.32,-0.412C0.376,-0.412 0.415,-0.383 0.432,-0.329L0.213,-0.329C0.228,-0.383 0.266,-0.412 0.32,-0.412Z" style="fill:rgb(0,0,8);fill-rule:nonzero;"/>
                    </g>
                    <g transform="matrix(121.456,0,0,121.456,1249.48,704)">
                        <path d="M0.267,0.018C0.41,0.018 0.506,-0.056 0.506,-0.169C0.506,-0.306 0.392,-0.324 0.307,-0.339C0.256,-0.348 0.214,-0.355 0.214,-0.386C0.214,-0.411 0.234,-0.426 0.264,-0.426C0.298,-0.426 0.321,-0.41 0.321,-0.375L0.495,-0.375C0.493,-0.485 0.404,-0.558 0.266,-0.558C0.128,-0.558 0.036,-0.488 0.036,-0.38C0.036,-0.249 0.147,-0.223 0.231,-0.21C0.282,-0.201 0.323,-0.192 0.323,-0.161C0.323,-0.133 0.298,-0.119 0.27,-0.119C0.235,-0.119 0.208,-0.137 0.208,-0.177L0.029,-0.177C0.03,-0.06 0.12,0.018 0.267,0.018Z" style="fill:rgb(0,0,8);fill-rule:nonzero;"/>
                    </g>
                </g>
                <g transform="matrix(2,0,0,2,144.621,-751.87)">
                    <g id="Logo">
                        <g>
                            <g id="Title" transform="matrix(144,0,0,144,39.5232,674.212)">
                                <path d="M0.513,-0.526L0.513,-0.7L0.067,-0.7L0.067,0L0.262,0L0.262,-0.245L0.487,-0.245L0.487,-0.414L0.262,-0.414L0.262,-0.526L0.513,-0.526Z" style="fill:rgb(0,0,8);fill-rule:nonzero;"/>
                            </g>
                            <g transform="matrix(144,0,0,144,116.851,674.212)">
                                <path d="M0.361,-0.543C0.297,-0.543 0.251,-0.525 0.213,-0.481L0.184,-0.54L0.059,-0.54L0.059,0L0.245,0L0.245,-0.275C0.245,-0.344 0.273,-0.373 0.338,-0.373L0.411,-0.373L0.411,-0.543L0.361,-0.543Z" style="fill:rgb(0,0,8);fill-rule:nonzero;"/>
                            </g>
                            <g transform="matrix(144,0,0,144,176.323,674.212)">
                                <path d="M0.33,0.018C0.505,0.018 0.633,-0.103 0.633,-0.27C0.633,-0.437 0.505,-0.558 0.33,-0.558C0.154,-0.558 0.027,-0.437 0.027,-0.27C0.027,-0.103 0.154,0.018 0.33,0.018ZM0.33,-0.149C0.262,-0.149 0.213,-0.199 0.213,-0.27C0.213,-0.341 0.262,-0.391 0.33,-0.391C0.398,-0.391 0.446,-0.341 0.446,-0.27C0.446,-0.199 0.398,-0.149 0.33,-0.149Z" style="fill:rgb(0,0,8);fill-rule:nonzero;"/>
                            </g>
                            <g transform="matrix(144,0,0,144,271.363,674.212)">
                                <path d="M0.267,0.018C0.41,0.018 0.506,-0.056 0.506,-0.169C0.506,-0.306 0.392,-0.324 0.307,-0.339C0.256,-0.348 0.214,-0.355 0.214,-0.386C0.214,-0.411 0.234,-0.426 0.264,-0.426C0.298,-0.426 0.321,-0.41 0.321,-0.375L0.495,-0.375C0.493,-0.485 0.404,-0.558 0.266,-0.558C0.128,-0.558 0.036,-0.488 0.036,-0.38C0.036,-0.249 0.147,-0.223 0.231,-0.21C0.282,-0.201 0.323,-0.192 0.323,-0.161C0.323,-0.133 0.298,-0.119 0.27,-0.119C0.235,-0.119 0.208,-0.137 0.208,-0.177L0.029,-0.177C0.03,-0.06 0.12,0.018 0.267,0.018Z" style="fill:rgb(0,0,8);fill-rule:nonzero;"/>
                            </g>
                            <g transform="matrix(144,0,0,144,347.539,674.212)">
                                <path d="M0.352,-0.163C0.312,-0.163 0.289,-0.186 0.289,-0.225L0.289,-0.397L0.42,-0.397L0.42,-0.54L0.284,-0.54L0.284,-0.698L0.246,-0.698L0.004,-0.44L0.004,-0.397L0.103,-0.397L0.103,-0.193C0.103,-0.073 0.176,0 0.295,0L0.423,0L0.423,-0.163L0.352,-0.163Z" style="fill:rgb(0,0,8);fill-rule:nonzero;"/>
                            </g>
                            <g transform="matrix(144,0,0,144,412.483,674.212)">
                                <path d="M0.407,-0.54L0.306,-0.22L0.204,-0.54L0,-0.54L0.22,0L0.389,0L0.606,-0.54L0.407,-0.54Z" style="fill:rgb(0,0,8);fill-rule:nonzero;"/>
                            </g>
                            <g transform="matrix(144,0,0,144,496.435,674.212)">
                                <path d="M0.495,-0.541L0.476,-0.499C0.431,-0.536 0.374,-0.557 0.311,-0.557C0.146,-0.557 0.028,-0.438 0.028,-0.271C0.028,-0.103 0.146,0.018 0.311,0.018C0.373,0.018 0.429,-0.003 0.474,-0.039L0.49,-0.001L0.633,-0.001L0.633,-0.541L0.495,-0.541ZM0.336,-0.147C0.266,-0.147 0.215,-0.2 0.215,-0.27C0.215,-0.34 0.265,-0.393 0.336,-0.393C0.405,-0.393 0.456,-0.34 0.456,-0.27C0.456,-0.2 0.405,-0.147 0.336,-0.147Z" style="fill:rgb(0,0,8);fill-rule:nonzero;"/>
                            </g>
                            <g transform="matrix(144,0,0,144,596.083,674.212)">
                                <rect x="0.059" y="-0.735" width="0.186" height="0.735" style="fill:rgb(0,0,8);"/>
                            </g>
                            <g transform="matrix(144,0,0,144,639.715,674.212)">
                                <path d="M0.615,-0.275C0.615,-0.434 0.494,-0.558 0.32,-0.558C0.151,-0.558 0.027,-0.436 0.027,-0.27C0.027,-0.105 0.152,0.018 0.32,0.018C0.456,0.018 0.565,-0.059 0.603,-0.182L0.418,-0.182C0.4,-0.151 0.364,-0.132 0.32,-0.132C0.262,-0.132 0.222,-0.164 0.21,-0.226L0.611,-0.226C0.614,-0.243 0.615,-0.259 0.615,-0.275ZM0.32,-0.412C0.376,-0.412 0.415,-0.383 0.432,-0.329L0.213,-0.329C0.228,-0.383 0.266,-0.412 0.32,-0.412Z" style="fill:rgb(0,0,8);fill-rule:nonzero;"/>
                            </g>
                        </g>
                    </g>
                </g>
                <g id="Snowflake" transform="matrix(1,0,0,1,-15.9092,-14.7534)">
                    <path d="M1642.4,369.173L1767.78,441.556M1767.78,369.173L1642.4,441.556M1705.09,477.748L1705.09,332.753M1738.92,348.68L1705.09,368.213M1705.09,443.994L1671.26,463.526M1637.91,404.986L1671.74,424.519M1740.13,385.229L1773.96,404.762M1671.5,346.888L1671.5,385.954M1736.99,423.977L1736.99,463.043" style="fill:none;stroke:rgb(0,0,8);stroke-width:19px;"/>
                </g>
            </g>
        </g>
    </g>
</svg>
