<?xml version="1.0" encoding="UTF-8" standalone="no"?>
<!DOCTYPE svg PUBLIC "-//W3C//DTD SVG 1.1//EN" "http://www.w3.org/Graphics/SVG/1.1/DTD/svg11.dtd">
<svg width="100%" height="100%" viewBox="0 0 1558 444" version="1.1" xmlns="http://www.w3.org/2000/svg" xmlns:xlink="http://www.w3.org/1999/xlink" xml:space="preserve" xmlns:serif="http://www.serif.com/" style="fill-rule:evenodd;clip-rule:evenodd;stroke-linecap:round;stroke-linejoin:round;stroke-miterlimit:1.5;">
    <g transform="matrix(1,0,0,1,-222,-292)">
        <g transform="matrix(1,0,0,1,248.151,21.1702)">
            <g transform="matrix(121.456,0,0,121.456,876,704)">
                <path d="M0.389,-0.374L0.389,-0.253L0.563,-0.253C0.541,-0.199 0.478,-0.163 0.404,-0.163C0.298,-0.163 0.229,-0.239 0.229,-0.349C0.229,-0.461 0.3,-0.537 0.404,-0.537C0.476,-0.537 0.539,-0.499 0.564,-0.44L0.766,-0.44C0.736,-0.603 0.586,-0.718 0.403,-0.718C0.187,-0.718 0.032,-0.562 0.032,-0.349C0.032,-0.136 0.19,0.018 0.404,0.018C0.624,0.018 0.773,-0.145 0.773,-0.374L0.389,-0.374Z" style="fill:rgb(0,0,8);fill-rule:nonzero;"/>
            </g>
            <g transform="matrix(121.456,0,0,121.456,973.529,704)">
                <path d="M0.495,-0.541L0.476,-0.499C0.431,-0.536 0.374,-0.557 0.311,-0.557C0.146,-0.557 0.028,-0.438 0.028,-0.271C0.028,-0.103 0.146,0.018 0.311,0.018C0.373,0.018 0.429,-0.003 0.474,-0.039L0.49,-0.001L0.633,-0.001L0.633,-0.541L0.495,-0.541ZM0.336,-0.147C0.266,-0.147 0.215,-0.2 0.215,-0.27C0.215,-0.34 0.265,-0.393 0.336,-0.393C0.405,-0.393 0.456,-0.34 0.456,-0.27C0.456,-0.2 0.405,-0.147 0.336,-0.147Z" style="fill:rgb(0,0,8);fill-rule:nonzero;"/>
            </g>
            <g transform="matrix(121.456,0,0,121.456,1057.58,704)">
                <path d="M0.694,-0.556C0.627,-0.556 0.567,-0.525 0.528,-0.476C0.495,-0.526 0.439,-0.556 0.374,-0.556C0.312,-0.556 0.255,-0.527 0.216,-0.482L0.19,-0.54L0.059,-0.54L0.059,0L0.245,0L0.245,-0.296C0.245,-0.363 0.272,-0.399 0.323,-0.399C0.362,-0.399 0.382,-0.37 0.382,-0.316L0.382,0L0.563,0L0.563,-0.296C0.563,-0.364 0.589,-0.399 0.641,-0.399C0.68,-0.399 0.701,-0.372 0.701,-0.316L0.701,0L0.887,0L0.887,-0.339C0.887,-0.466 0.81,-0.556 0.694,-0.556Z" style="fill:rgb(0,0,8);fill-rule:nonzero;"/>
            </g>
            <g transform="matrix(121.456,0,0,121.456,1171.62,704)">
                <path d="M0.615,-0.275C0.615,-0.434 0.494,-0.558 0.32,-0.558C0.151,-0.558 0.027,-0.436 0.027,-0.27C0.027,-0.105 0.152,0.018 0.32,0.018C0.456,0.018 0.565,-0.059 0.603,-0.182L0.418,-0.182C0.4,-0.151 0.364,-0.132 0.32,-0.132C0.262,-0.132 0.222,-0.164 0.21,-0.226L0.611,-0.226C0.614,-0.243 0.615,-0.259 0.615,-0.275L0.615,-0.275ZM0.32,-0.412C0.376,-0.412 0.415,-0.383 0.432,-0.329L0.213,-0.329C0.228,-0.383 0.266,-0.412 0.32,-0.412Z" style="fill:rgb(0,0,8);fill-rule:nonzero;"/>
            </g>
            <g transform="matrix(121.456,0,0,121.456,1249.48,704)">
                <path d="M0.267,0.018C0.41,0.018 0.506,-0.056 0.506,-0.169C0.506,-0.306 0.392,-0.324 0.307,-0.339C0.256,-0.348 0.214,-0.355 0.214,-0.386C0.214,-0.411 0.234,-0.426 0.264,-0.426C0.298,-0.426 0.321,-0.41 0.321,-0.375L0.495,-0.375C0.493,-0.485 0.404,-0.558 0.266,-0.558C0.128,-0.558 0.036,-0.488 0.036,-0.38C0.036,-0.249 0.147,-0.223 0.231,-0.21C0.282,-0.201 0.323,-0.192 0.323,-0.161C0.323,-0.133 0.298,-0.119 0.27,-0.119C0.235,-0.119 0.208,-0.137 0.208,-0.177L0.029,-0.177C0.03,-0.06 0.12,0.018 0.267,0.018L0.267,0.018Z" style="fill:rgb(0,0,8);fill-rule:nonzero;"/>
            </g>
        </g>
        <g id="Logo">
            <g transform="matrix(2,0,0,2,144.621,-751.87)">
                <g id="Title" transform="matrix(144,0,0,144,39.5232,674.212)">
                    <path d="M0.513,-0.526L0.513,-0.7L0.067,-0.7L0.067,0L0.262,0L0.262,-0.245L0.487,-0.245L0.487,-0.414L0.262,-0.414L0.262,-0.526L0.513,-0.526Z" style="fill:rgb(0,0,8);fill-rule:nonzero;"/>
                </g>
                <g transform="matrix(144,0,0,144,116.851,674.212)">
                    <path d="M0.361,-0.543C0.297,-0.543 0.251,-0.525 0.213,-0.481L0.184,-0.54L0.059,-0.54L0.059,0L0.245,0L0.245,-0.275C0.245,-0.344 0.273,-0.373 0.338,-0.373L0.411,-0.373L0.411,-0.543L0.361,-0.543Z" style="fill:rgb(0,0,8);fill-rule:nonzero;"/>
                </g>
                <g transform="matrix(144,0,0,144,176.323,674.212)">
                    <path d="M0.33,0.018C0.505,0.018 0.633,-0.103 0.633,-0.27C0.633,-0.437 0.505,-0.558 0.33,-0.558C0.154,-0.558 0.027,-0.437 0.027,-0.27C0.027,-0.103 0.154,0.018 0.33,0.018ZM0.33,-0.149C0.262,-0.149 0.213,-0.199 0.213,-0.27C0.213,-0.341 0.262,-0.391 0.33,-0.391C0.398,-0.391 0.446,-0.341 0.446,-0.27C0.446,-0.199 0.398,-0.149 0.33,-0.149L0.33,-0.149Z" style="fill:rgb(0,0,8);fill-rule:nonzero;"/>
                </g>
                <g transform="matrix(144,0,0,144,271.363,674.212)">
                    <path d="M0.267,0.018C0.41,0.018 0.506,-0.056 0.506,-0.169C0.506,-0.306 0.392,-0.324 0.307,-0.339C0.256,-0.348 0.214,-0.355 0.214,-0.386C0.214,-0.411 0.234,-0.426 0.264,-0.426C0.298,-0.426 0.321,-0.41 0.321,-0.375L0.495,-0.375C0.493,-0.485 0.404,-0.558 0.266,-0.558C0.128,-0.558 0.036,-0.488 0.036,-0.38C0.036,-0.249 0.147,-0.223 0.231,-0.21C0.282,-0.201 0.323,-0.192 0.323,-0.161C0.323,-0.133 0.298,-0.119 0.27,-0.119C0.235,-0.119 0.208,-0.137 0.208,-0.177L0.029,-0.177C0.03,-0.06 0.12,0.018 0.267,0.018L0.267,0.018Z" style="fill:rgb(0,0,8);fill-rule:nonzero;"/>
                </g>
                <g transform="matrix(144,0,0,144,347.539,674.212)">
                    <path d="M0.352,-0.163C0.312,-0.163 0.289,-0.186 0.289,-0.225L0.289,-0.397L0.42,-0.397L0.42,-0.54L0.284,-0.54L0.284,-0.698L0.246,-0.698L0.004,-0.44L0.004,-0.397L0.103,-0.397L0.103,-0.193C0.103,-0.073 0.176,0 0.295,0L0.423,0L0.423,-0.163L0.352,-0.163Z" style="fill:rgb(0,0,8);fill-rule:nonzero;"/>
                </g>
                <g transform="matrix(144,0,0,144,412.483,674.212)">
                    <path d="M0.407,-0.54L0.306,-0.22L0.204,-0.54L0,-0.54L0.22,0L0.389,0L0.606,-0.54L0.407,-0.54Z" style="fill:rgb(0,0,8);fill-rule:nonzero;"/>
                </g>
                <g transform="matrix(144,0,0,144,496.435,674.212)">
                    <path d="M0.495,-0.541L0.476,-0.499C0.431,-0.536 0.374,-0.557 0.311,-0.557C0.146,-0.557 0.028,-0.438 0.028,-0.271C0.028,-0.103 0.146,0.018 0.311,0.018C0.373,0.018 0.429,-0.003 0.474,-0.039L0.49,-0.001L0.633,-0.001L0.633,-0.541L0.495,-0.541ZM0.336,-0.147C0.266,-0.147 0.215,-0.2 0.215,-0.27C0.215,-0.34 0.265,-0.393 0.336,-0.393C0.405,-0.393 0.456,-0.34 0.456,-0.27C0.456,-0.2 0.405,-0.147 0.336,-0.147Z" style="fill:rgb(0,0,8);fill-rule:nonzero;"/>
                </g>
                <g transform="matrix(144,0,0,144,596.083,674.212)">
                    <rect x="0.059" y="-0.735" width="0.186" height="0.735" style="fill:rgb(0,0,8);fill-rule:nonzero;"/>
                </g>
                <g transform="matrix(144,0,0,144,639.715,674.212)">
                    <path d="M0.615,-0.275C0.615,-0.434 0.494,-0.558 0.32,-0.558C0.151,-0.558 0.027,-0.436 0.027,-0.27C0.027,-0.105 0.152,0.018 0.32,0.018C0.456,0.018 0.565,-0.059 0.603,-0.182L0.418,-0.182C0.4,-0.151 0.364,-0.132 0.32,-0.132C0.262,-0.132 0.222,-0.164 0.21,-0.226L0.611,-0.226C0.614,-0.243 0.615,-0.259 0.615,-0.275L0.615,-0.275ZM0.32,-0.412C0.376,-0.412 0.415,-0.383 0.432,-0.329L0.213,-0.329C0.228,-0.383 0.266,-0.412 0.32,-0.412Z" style="fill:rgb(0,0,8);fill-rule:nonzero;"/>
                </g>
            </g>
        </g>
        <g id="Snowflake" transform="matrix(1,0,0,1,-15.9092,-14.7534)">
            <path d="M1642.4,369.173L1767.78,441.556M1767.78,369.173L1642.4,441.556M1705.09,477.748L1705.09,332.753M1738.92,348.68L1705.09,368.213M1705.09,443.994L1671.26,463.526M1637.91,404.986L1671.74,424.519M1740.13,385.229L1773.96,404.762M1671.5,346.888L1671.5,385.954M1736.99,423.977L1736.99,463.043" style="fill:none;stroke:rgb(0,0,8);stroke-width:19px;"/>
        </g>
    </g>
</svg>
